<svg width="100" height="100" viewBox="0 0 100 100" fill="none" xmlns="http://www.w3.org/2000/svg">
<path d="M89.2765 60.985C89.2765 63.9745 87.9824 66.4023 85.3942 68.2682C82.8059 70.1141 78.8734 71.037 73.5966 71.037H49.4598C48.9181 71.037 48.5168 70.9267 48.256 70.706C48.0152 70.4853 47.8948 70.1943 47.8948 69.8332C47.8948 69.1911 48.246 68.7497 48.9482 68.509L50.3627 68.1478C50.8643 67.9873 51.2355 67.7766 51.4762 67.5158C51.717 67.2349 51.8374 66.8537 51.8374 66.3722V33.2668C51.8374 32.8856 51.727 32.5847 51.5063 32.364C51.2856 32.1433 50.9044 31.9527 50.3627 31.7921L48.9482 31.431C48.246 31.1902 47.8948 30.7488 47.8948 30.1068C47.8948 29.7256 48.0152 29.4346 48.256 29.234C48.5168 29.0133 48.9181 28.903 49.4598 28.903H67.3969C71.4899 28.903 74.9911 29.4246 77.9003 30.4679C80.8096 31.5113 83.0266 32.9659 84.5515 34.8318C86.0964 36.6978 86.8688 38.8546 86.8688 41.3024C86.8688 43.3489 86.2569 45.1446 85.033 46.6896C83.8292 48.2144 82.0937 49.4082 79.8264 50.2709C77.5592 51.1136 74.8506 51.535 71.7006 51.535L73.3859 50.7525C76.5159 50.7525 79.2647 51.1838 81.6322 52.0466C84.0198 52.9093 85.8857 54.1132 87.23 55.6581C88.5943 57.203 89.2765 58.9787 89.2765 60.985ZM68.8415 52.6485H62.702V50.5418H68.059C69.5437 50.5418 70.7776 50.2509 71.7608 49.669C72.7439 49.0671 73.4662 48.1542 73.9277 46.9303C74.4092 45.6864 74.65 44.0913 74.65 42.1451C74.65 39.9381 74.2688 38.022 73.5063 36.3968C72.764 34.7716 71.7307 33.5176 70.4065 32.6348C69.1023 31.752 67.6076 31.3106 65.9222 31.3106H65.1397V66.1013C65.1397 66.9841 65.3905 67.6262 65.8921 68.0274C66.4138 68.4287 67.1461 68.6294 68.0891 68.6294H70.1958C71.4197 68.6294 72.473 68.3184 73.3559 67.6964C74.2387 67.0543 74.9108 66.1314 75.3723 64.9276C75.8538 63.7237 76.0946 62.2892 76.0946 60.6239C76.0946 58.0958 75.4626 56.1396 74.1985 54.7552C72.9546 53.3507 71.1689 52.6485 68.8415 52.6485Z" fill="#E8773A"/>
<path d="M27.7565 71.7893C26.2316 71.7893 24.9476 71.5987 23.9042 71.2175C22.8609 70.8363 22.0082 70.4551 21.3461 70.0739C20.7041 69.6726 20.2025 69.472 19.8413 69.472C19.5002 69.472 19.119 69.6024 18.6977 69.8632C18.2763 70.104 17.8349 70.3949 17.3735 70.736C16.9321 71.0771 16.5007 71.368 16.0793 71.6088C15.658 71.8696 15.2668 72 14.9056 72C14.5043 72 14.1532 71.8696 13.8523 71.6088C13.5513 71.368 13.3607 70.9767 13.2804 70.435L11.4145 57.9754C11.3744 57.5741 11.4245 57.243 11.565 56.9822C11.7255 56.7214 11.9863 56.5308 12.3475 56.4104C12.7287 56.27 13.0698 56.28 13.3707 56.4405C13.6917 56.5809 13.9726 56.8719 14.2134 57.3133C15.9188 60.5034 17.4838 62.9512 18.9083 64.6566C20.3529 66.3621 21.7073 67.5358 22.9713 68.1778C24.2353 68.8199 25.4793 69.1409 26.7031 69.1409C28.4688 69.1409 29.8833 68.7095 30.9466 67.8468C32.0301 66.964 32.5718 65.6498 32.5718 63.9042C32.5718 62.7405 32.321 61.7173 31.8194 60.8345C31.3178 59.9316 30.3949 59.099 29.0506 58.3365C27.7264 57.5741 25.8203 56.8217 23.3324 56.0793C20.1021 55.0561 17.5039 53.8723 15.5376 52.528C13.5914 51.1637 12.1769 49.5686 11.2941 47.7428C10.4314 45.917 10 43.7902 10 41.3625C10 38.7943 10.6521 36.5171 11.9562 34.5308C13.2604 32.5445 15.0962 30.9995 17.4637 29.896C19.8313 28.7725 22.6101 28.2107 25.8003 28.2107C27.3251 28.2107 28.6192 28.3611 29.6826 28.6621C30.746 28.943 31.6389 29.2339 32.3612 29.5349C33.0834 29.8358 33.6854 29.9863 34.1669 29.9863C34.6284 29.9863 35.14 29.8258 35.7018 29.5048C36.2636 29.1637 36.8354 28.8327 37.4172 28.5116C38.0192 28.1705 38.5809 28 39.1026 28C39.5039 28 39.845 28.1304 40.1259 28.3912C40.4268 28.6521 40.6776 29.1236 40.8783 29.8057L43.8577 41.7538C43.9982 42.2353 43.9881 42.6466 43.8276 42.9877C43.6872 43.3087 43.4264 43.5394 43.0451 43.6799C42.6439 43.8003 42.2827 43.7802 41.9617 43.6197C41.6607 43.4592 41.4099 43.1883 41.2093 42.8071C39.3835 39.6571 37.658 37.2193 36.0328 35.4938C34.4077 33.7684 32.8527 32.5746 31.368 31.9124C29.9033 31.2303 28.4788 30.8892 27.0944 30.8892C25.4893 30.8892 24.2152 31.3908 23.2722 32.394C22.3292 33.3972 21.8577 34.7214 21.8577 36.3666C21.8577 37.5103 22.0885 38.5436 22.5499 39.4665C23.0114 40.3694 23.8741 41.2321 25.1382 42.0547C26.4022 42.8573 28.228 43.6699 30.6156 44.4925C33.9061 45.6161 36.5144 46.85 38.4405 48.1943C40.3867 49.5385 41.7811 51.0634 42.6238 52.7688C43.4865 54.4542 43.9179 56.4104 43.9179 58.6375C43.9179 61.0853 43.2658 63.3023 41.9617 65.2886C40.6776 67.275 38.8317 68.86 36.4241 70.0438C34.0164 71.2075 31.1272 71.7893 27.7565 71.7893Z" fill="#E8773A"/>
</svg>
