<svg width="632" height="156" viewBox="0 0 632 156" fill="none" xmlns="http://www.w3.org/2000/svg">
<rect x="2.5" y="2.5" width="627" height="151" rx="18.5" fill="#B84A1C" stroke="black" stroke-width="5"/>
<path d="M563.185 41.5674L563.189 43.5713L563.219 59.1777H544.608V74.918H563.249L563.3 101.236C563.299 103.948 562.621 105.77 561.524 106.979C560.367 108.101 558.641 108.786 556.065 108.786H544.608V126.483H555.286C561.005 126.483 565.879 125.736 569.827 124.152L569.874 124.133C573.874 122.409 576.892 119.54 578.879 115.601L578.887 115.585C580.854 111.599 581.764 106.424 581.764 100.197V100.193L581.714 74.918H591.332V59.1777H581.683L581.652 43.5635L581.649 41.5674H563.185Z" fill="#EAE2D4" stroke="black" stroke-width="4"/>
<path d="M514.583 57.3362C522.299 57.3362 528.759 59.0938 533.791 62.7883C538.959 66.5823 541.598 72.1451 541.838 79.1799L541.909 81.2483H524.066L523.937 79.386C523.833 77.8807 523.131 76.5291 521.572 75.2883C520.131 74.1417 517.861 73.4221 514.472 73.4221C511.439 73.4221 509.396 74.0328 508.088 74.9915C506.783 75.9479 506.236 77.0554 506.236 78.4426C506.236 79.8934 506.71 80.7988 507.545 81.4426C508.615 82.2075 510.571 82.879 513.704 83.2473H513.703L519.026 83.8206C526.392 84.6143 532.371 86.7401 536.772 90.3655H536.771C541.346 94.0722 543.619 99.1084 543.619 105.261C543.619 109.782 542.398 113.806 539.906 117.247C537.51 120.58 534.158 123.132 529.948 124.94C525.713 126.758 520.798 127.634 515.251 127.634C506.675 127.634 499.668 125.774 494.459 121.817L494.445 121.806L494.431 121.795C489.254 117.714 486.567 112.078 486.326 105.1L486.255 103.031H504.036L504.223 104.825C504.38 106.337 505.186 107.855 506.978 109.377C508.525 110.692 511.217 111.548 515.473 111.548C518.962 111.548 521.469 110.895 523.183 109.794L523.196 109.785L523.208 109.778C524.917 108.717 525.601 107.444 525.601 105.837C525.601 104.42 525.066 103.369 523.873 102.511L523.857 102.498L523.839 102.486C522.672 101.607 520.327 100.838 516.395 100.461L516.371 100.459L511.032 99.8831L511.02 99.8821C504.019 99.0862 498.385 96.9913 494.342 93.4065C490.231 89.7615 488.217 84.8944 488.217 79.0188C488.217 74.3909 489.34 70.3563 491.703 67.0383C494.023 63.7817 497.199 61.368 501.155 59.7815C505.141 58.1355 509.629 57.3362 514.583 57.3362Z" fill="#EAE2D4" stroke="black" stroke-width="4"/>
<path d="M477.508 59.1772V125.677H458.043V75.1479H449.587V59.1772H477.508ZM465.717 34.3159C469.085 34.3159 471.971 35.2126 473.899 37.4165C475.693 39.4679 476.507 42.0814 476.507 45.064C476.507 47.9296 475.673 50.4711 473.928 52.561L473.914 52.5786L473.899 52.5952C471.971 54.7991 469.085 55.6958 465.717 55.6958C462.341 55.6957 459.45 54.796 457.459 52.6333L457.426 52.5981L457.395 52.561C455.65 50.4711 454.817 47.9296 454.817 45.064C454.817 42.0813 455.631 39.4679 457.425 37.4165L457.442 37.397L457.459 37.3784C459.45 35.2157 462.341 34.316 465.717 34.3159Z" fill="#EAE2D4" stroke="black" stroke-width="4"/>
<path d="M441.495 37.6538V125.677H422.029V53.6245H414.463V37.6538H441.495Z" fill="#EAE2D4" stroke="black" stroke-width="4"/>
<path d="M393.693 41.5674L393.689 43.5713L393.659 59.1777H412.27V74.918H393.629L393.578 101.236C393.578 103.948 394.257 105.77 395.354 106.979C396.511 108.101 398.236 108.786 400.813 108.786H412.27V126.483H401.591C395.872 126.483 390.999 125.736 387.05 124.152L387.004 124.133C383.003 122.409 379.986 119.54 377.999 115.601L377.991 115.585C376.023 111.599 375.114 106.424 375.114 100.197V100.193L375.164 74.918H365.546V59.1777H375.195L375.225 43.5635L375.229 41.5674H393.693Z" fill="#EAE2D4" stroke="black" stroke-width="4"/>
<path d="M336.789 57.2209C344.473 57.2211 350.563 59.8312 354.721 65.2424C358.822 70.5029 360.707 78.1613 360.707 87.8811V125.677H341.242V86.5002C341.242 83.0566 340.288 80.4592 338.532 78.5178L338.509 78.4924C336.879 76.6259 334.579 75.6087 331.337 75.6086C328.032 75.6086 325.494 76.6602 323.54 78.6819C321.68 80.6062 320.653 83.2864 320.653 86.9602V125.677H301.188V59.178H317.427V66.3665C318.909 64.1081 320.721 62.237 322.876 60.7854L322.894 60.7737C326.553 58.3647 331.001 57.2209 336.121 57.2209H336.789Z" fill="#EAE2D4" stroke="black" stroke-width="4"/>
<path d="M248.258 59.0623V98.7C248.258 102.156 249.183 104.704 250.847 106.555C252.48 108.298 254.728 109.246 257.83 109.246C260.894 109.246 263.238 108.246 265.047 106.311L265.058 106.3L265.07 106.288C266.93 104.364 267.957 101.683 267.957 98.0095V59.0623H287.422V125.677H271.183V118.997C269.807 121.015 268.15 122.71 266.197 124.057C262.676 126.485 258.361 127.634 253.378 127.634H252.711C245.23 127.634 239.206 125.051 234.914 119.757L234.908 119.75L234.902 119.742C230.721 114.484 228.793 106.901 228.793 97.3191V59.0623H248.258Z" fill="#EAE2D4" stroke="black" stroke-width="4"/>
<path d="M177.447 37.6538V64.3218C178.449 63.0998 179.567 62.0167 180.805 61.0796L180.813 61.0728L180.822 61.0649C184.353 58.4559 188.728 57.2213 193.805 57.2212H194.473C201.91 57.2212 207.787 59.907 211.779 65.4136C215.689 70.806 217.501 78.4271 217.501 87.9956V125.677H198.036V86.4995C198.036 82.8938 197.041 80.2941 195.26 78.4517L195.248 78.439L195.236 78.4272C193.514 76.5846 191.216 75.6089 188.131 75.6089C184.866 75.6089 182.34 76.7071 180.376 78.8657C178.478 80.9555 177.447 83.7786 177.447 87.5356V125.677H157.981V37.6538H177.447Z" fill="#EAE2D4" stroke="black" stroke-width="4"/>
<path d="M86.5047 37.984C87.6386 28.2159 101.337 28.2159 102.471 37.984C103.256 44.7519 111.146 47.7225 115.953 43.0604C122.891 36.3316 133.384 45.4405 128.184 53.6773C124.58 59.3842 128.778 66.9061 135.357 66.5312C144.853 65.9902 147.232 79.9458 138.13 82.7972C131.823 84.7728 130.366 93.3264 135.638 97.4141C143.249 103.314 136.4 115.586 127.655 111.718C121.597 109.038 115.165 114.621 116.665 121.259C118.829 130.839 105.956 135.686 101.661 126.908C98.6857 120.826 90.2898 120.826 87.314 126.908C83.0191 135.686 70.1468 130.839 72.3108 121.259C73.8102 114.621 67.3785 109.038 61.3201 111.718C52.5758 115.586 45.7267 103.314 53.337 97.4141C58.6099 93.3264 57.152 84.7728 50.8456 82.7972C41.7436 79.9458 44.1223 65.9902 53.6181 66.5312C60.1973 66.9061 64.3952 59.3842 60.7918 53.6773C55.591 45.4405 66.0845 36.3316 73.0225 43.0604C77.8296 47.7225 85.7191 44.7519 86.5047 37.984Z" fill="black"/>
<path d="M83.3793 32.3261C84.5132 22.558 98.2115 22.558 99.3454 32.3261C100.131 39.094 108.021 42.0646 112.828 37.4025C119.766 30.6737 130.259 39.7826 125.058 48.0193C121.455 53.7262 125.653 61.2481 132.232 60.8733C141.728 60.3322 144.106 74.2879 135.004 77.1392C128.698 79.1148 127.24 87.6684 132.513 91.7562C140.123 97.6561 133.274 109.928 124.53 106.06C118.472 103.38 112.04 108.963 113.539 115.601C115.703 125.181 102.831 130.028 98.5361 121.25C95.5603 115.168 87.1644 115.168 84.1886 121.25C79.8937 130.028 67.0215 125.181 69.1855 115.601C70.6848 108.963 64.2532 103.38 58.1947 106.06C49.4505 109.928 42.6013 97.6561 50.2117 91.7562C55.4845 87.6684 54.0266 79.1148 47.7203 77.1392C38.6183 74.2879 40.997 60.3322 50.4927 60.8733C57.0719 61.2481 61.2699 53.7262 57.6665 48.0193C52.4656 39.7826 62.9591 30.6737 69.8972 37.4025C74.7042 42.0646 82.5937 39.094 83.3793 32.3261Z" fill="#6DBE00"/>
<path d="M83.3797 32.326C84.5136 22.558 98.2112 22.558 99.3451 32.326C100.118 38.9882 107.776 41.971 112.6 37.6155L112.828 37.4023C119.766 30.6738 130.259 39.7823 125.058 48.019C121.511 53.6367 125.524 61.0138 131.925 60.8854L132.232 60.8735C141.728 60.3325 144.106 74.2882 135.004 77.1396L134.713 77.2367C128.654 79.381 127.323 87.7319 132.513 91.7559C140.004 97.5636 133.485 109.547 124.938 106.23L124.53 106.06C118.472 103.38 112.04 108.963 113.54 115.6C115.67 125.031 103.23 129.875 98.7439 121.652L98.5363 121.25C95.5605 115.168 87.1643 115.168 84.1885 121.25C79.8935 130.028 67.0212 125.181 69.1852 115.6C70.6844 108.963 64.2531 103.38 58.1946 106.06L57.7864 106.23C49.3757 109.494 42.9275 97.94 49.8655 92.0369L50.2119 91.7559C55.4022 87.7319 54.0704 79.381 48.0121 77.2367L47.7207 77.1396C38.6187 74.2882 40.997 60.3325 50.4927 60.8735C56.969 61.2425 61.1382 53.9594 57.8299 48.2882L57.6666 48.019C52.466 39.7823 62.9591 30.6737 69.8971 37.4023C74.6291 41.9917 82.3485 39.1848 83.3377 32.6402L83.3797 32.326ZM97.111 32.6039C96.2945 25.5702 86.4302 25.5702 85.6138 32.6039C84.6081 41.2661 74.5107 45.068 68.3581 39.101C63.3623 34.2559 55.806 40.8148 59.5505 46.7458C64.1626 54.0502 58.79 63.6779 50.3691 63.1982C43.5316 62.8086 41.8187 72.857 48.3723 74.9105C56.4439 77.4391 58.3105 88.3874 51.5617 93.6195C46.0817 97.8679 51.0131 106.704 57.3095 103.919C65.064 100.489 73.2964 107.635 71.3773 116.131C69.8195 123.029 79.0875 126.519 82.1802 120.198C85.989 112.414 96.7358 112.414 100.545 120.198C103.637 126.519 112.905 123.029 111.347 116.131C109.428 107.635 117.661 100.489 125.415 103.919C131.712 106.704 136.643 97.8679 131.163 93.6195C124.414 88.3874 126.281 77.4391 134.353 74.9105C140.906 72.857 139.193 62.8086 132.356 63.1982C123.935 63.6779 118.562 54.0502 123.174 46.7458C126.919 40.8148 119.362 34.2559 114.367 39.101C108.214 45.068 98.1167 41.2661 97.111 32.6039Z" fill="black"/>
<path d="M99.4209 53.2742L93.4702 64.318C93.9945 64.1596 94.5272 64.0467 95.0681 63.9804L95.0755 63.979L95.0838 63.9781C97.3279 63.7304 99.5731 64.2978 101.785 65.575L102.189 65.8079C105.537 67.741 107.524 70.5576 107.946 74.2106L107.983 74.5488C108.321 78.0605 107.196 82.0283 104.849 86.3838L95.3956 103.929L83.9039 97.2938L93.5544 79.3836C94.1308 78.314 94.2432 77.3652 94.0172 76.4711L94.0133 76.4576L94.0104 76.4446C93.8019 75.5456 93.2758 74.8201 92.2862 74.2488C91.2968 73.6776 90.396 73.5799 89.4988 73.8636L89.4866 73.8678L89.4735 73.8715C88.6103 74.1246 87.8588 74.7323 87.2425 75.8758L77.648 93.682L66.1563 87.0472L87.9292 46.6395L99.4209 53.2742Z" fill="#EAE2D4" stroke="black" stroke-width="2.67333"/>
</svg>
